<?xml version="1.0" encoding="utf-8"?>
<!-- Generator: Adobe Illustrator 23.0.0, SVG Export Plug-In . SVG Version: 6.00 Build 0)  -->
<svg version="1.1" xmlns="http://www.w3.org/2000/svg" xmlns:xlink="http://www.w3.org/1999/xlink" x="0px" y="0px"
	 viewBox="0 0 1000 1000" style="enable-background:new 0 0 1000 1000;" xml:space="preserve">
<style type="text/css">
	.st0{fill:#FFFFFF;}
	.st1{fill:#67BDFF;}
</style>
<g id="Layer_2">
</g>
<g id="Layer_1">
	<path class="st0" d="M292.1,343.5h-15.9c-57.1,0-103.5-46.3-103.5-103.5v0c0-57.1,46.3-103.5,103.5-103.5h15.9
		c57.1,0,103.5,46.3,103.5,103.5v0C395.6,297.2,349.2,343.5,292.1,343.5z"/>
	<path class="st1" d="M719.4,71.2L719.4,71.2c-59.6,0-107.9,44.9-107.9,100.2v116.2v345.6c0,55.3-48.3,100.2-107.9,100.2h0
		c-50.5,0-92.9-32.2-104.7-75.8c-1.2,0.1-2.4,0.2-3.6,0.3C412.7,753.4,502,826,609.7,826h0c108.8,0,199-74.2,215.1-171.1
		c1.6-7,2.5-14.2,2.5-21.6v-9.4V489.7V171.5C827.3,116.1,779,71.2,719.4,71.2z"/>
	<g>
		<path class="st0" d="M498.7,733.4c1.6,0.1,3.2,0.1,4.8,0.1C501.9,733.5,500.3,733.4,498.7,733.4z"/>
		<path class="st0" d="M824.7,654.9C808.7,751.8,718.5,826,609.7,826h0c-107.6,0-197-72.6-214.5-167.9c0.4,0,0.7-0.1,1.1-0.1
			c-1-3.2-1.8-6.4-2.4-9.8c1.1-5.9,1.7-12,1.7-18.2V518.2c0-57.1-49.9-103.5-111.4-103.5h0c-61.5,0-111.4,46.3-111.4,103.5v73.4
			v33.3v5.1c0,2.4,0.1,4.7,0.3,7c6.9,162.2,150.6,291.7,327,291.7h0c173.6,0,315.6-125.5,326.6-284.2
			C826.1,648.1,825.5,651.5,824.7,654.9z"/>
		<path class="st0" d="M494.1,733.1c0.3,0,0.6,0,0.9,0.1C494.6,733.1,494.3,733.1,494.1,733.1z"/>
	</g>
</g>
</svg>
